<?xml version="1.0" encoding="utf-8"?>
<!-- Generator: Adobe Illustrator 21.0.0, SVG Export Plug-In . SVG Version: 6.00 Build 0)  -->
<svg version="1.1" id="Layer_1" xmlns="http://www.w3.org/2000/svg" xmlns:xlink="http://www.w3.org/1999/xlink" x="0px" y="0px"
	 viewBox="0 0 1024 1024" style="enable-background:new 0 0 1024 1024;" xml:space="preserve">
<style type="text/css">
	.st0{fill:#FFFFFF;}
	.st1{fill:none;stroke:#FFFFFF;stroke-width:96;stroke-miterlimit:10;}
	.st2{fill:none;stroke:#FFFFFF;stroke-width:64;stroke-miterlimit:10;}
</style>
<g>
	<path class="st0" d="M328.2,752.3c23.1-23.1,135.3-167.3,122.3-180.3c-13-13-156.6,98.6-180.3,122.3
		C277.3,701.5,318.7,742.9,328.2,752.3z"/>
</g>
<rect x="189.8" y="695" transform="matrix(0.7071 0.7071 -0.7071 0.7071 627.4852 68.7573)" class="st0" width="82" height="193.6"/>
<g>
	<path class="st1" d="M279.1,157.5c17.5-27.6,48.3-46.1,83.3-46.1h459.4c54.1,0,98.4,44.3,98.4,98.4v459.4
		c0,33.8-17.2,63.7-43.4,81.5"/>
	<path class="st1" d="M662.7,256.9H203.3c-54.1,0-98.4,44.3-98.4,98.4v459.4c0,54.1,44.3,98.4,98.4,98.4h459.4
		c54.1,0,98.4-44.3,98.4-98.4V355.3C761.1,301.2,716.8,256.9,662.7,256.9z"/>
</g>
<g>
	<path class="st2" d="M282.2,749.7c0,0,116.7-10.2,148.9,20.4c-2.8-47.9,103-176.6,189.2-294c24.1-32.8,26.5-101.4,26.5-101.4
		s-68.6,2.4-101.4,26.5c-117.4,86.3-246.1,192.1-294,189.2c30.5,32.2,20.4,148.9,20.4,148.9"/>
</g>
</svg>
