<svg id="Layer_1" data-name="Layer 1" xmlns="http://www.w3.org/2000/svg" viewBox="0 0 911.3 897.7"><defs><style>.cls-1{fill:#3f48cc;}.cls-2,.cls-3{fill:none;stroke-miterlimit:10;}.cls-2{stroke:#fff;stroke-width:96px;}.cls-3{stroke:#3f48cc;stroke-width:64px;}</style></defs><title>BeatSpearColored</title><path class="cls-1" d="M328.19,752.34C351.33,729.2,463.54,585.05,450.53,572S294,670.64,270.23,694.38Z" transform="translate(-56.9 -63.4)"/><rect class="cls-1" x="189.76" y="695" width="81.97" height="193.64" transform="translate(570.59 5.36) rotate(45)"/><path class="cls-2" d="M279.1,157.5a98.71,98.71,0,0,1,83.3-46.1H821.8c54.1,0,98.4,44.3,98.4,98.4V669.2a98.46,98.46,0,0,1-43.4,81.5" transform="translate(-56.9 -63.4)"/><path class="cls-2" d="M662.7,256.9H203.3c-54.1,0-98.4,44.3-98.4,98.4V814.7c0,54.1,44.3,98.4,98.4,98.4H662.7c54.1,0,98.4-44.3,98.4-98.4V355.3C761.1,301.2,716.8,256.9,662.7,256.9Z" transform="translate(-56.9 -63.4)"/><path class="cls-3" d="M282.16,749.7s116.67-10.18,148.92,20.36c-2.83-47.94,103-176.64,189.22-294,24.08-32.77,26.48-101.38,26.48-101.38s-68.61,2.4-101.38,26.48C428,487.42,299.33,593.2,251.39,590.37c30.55,32.24,20.36,148.92,20.36,148.92" transform="translate(-56.9 -63.4)"/></svg>