<svg id="Layer_1" data-name="Layer 1" xmlns="http://www.w3.org/2000/svg" viewBox="0 0 911.3 897.7"><defs><style>.cls-1,.cls-3{fill:none;stroke:#fff;stroke-miterlimit:10;}.cls-1{stroke-width:96px;}.cls-2{fill:#fff;}.cls-3{stroke-width:64px;}</style></defs><title>BeatSpear</title><path class="cls-1" d="M279.1,157.5a98.71,98.71,0,0,1,83.3-46.1H821.8c54.1,0,98.4,44.3,98.4,98.4V669.2a98.46,98.46,0,0,1-43.4,81.5" transform="translate(-56.9 -63.4)"/><path class="cls-1" d="M662.7,256.9H203.3c-54.1,0-98.4,44.3-98.4,98.4V814.7c0,54.1,44.3,98.4,98.4,98.4H662.7c54.1,0,98.4-44.3,98.4-98.4V355.3C761.1,301.2,716.8,256.9,662.7,256.9Z" transform="translate(-56.9 -63.4)"/><path class="cls-2" d="M381,698.66C404.15,675.52,515,530,500.91,515.92s-159,96.16-182.73,119.9Z" transform="translate(-56.9 -63.4)"/><path class="cls-3" d="M281.16,744.7s118.95-12.46,151.22,18.06c-2-48.75,108-181.65,197.9-302.69,25.1-33.79,28.78-103.68,28.78-103.68s-69.89,3.67-103.68,28.78c-121,89.92-253.94,199.91-302.69,197.9,30.52,32.27,18.06,151.22,18.06,151.22" transform="translate(-56.9 -63.4)"/><path class="cls-2" d="M179.54,901.12s-47,21.42-66.89,1.53,4-64.42,4-64.42L318.05,635.7l62.89,62.89Z" transform="translate(-56.9 -63.4)"/></svg>